<?xml version="1.0" standalone="no"?>
<!DOCTYPE svg PUBLIC "-//W3C//DTD SVG 20010904//EN"
 "http://www.w3.org/TR/2001/REC-SVG-20010904/DTD/svg10.dtd">
<svg version="1.0" xmlns="http://www.w3.org/2000/svg"
 width="141.000000pt" height="152.000000pt" viewBox="0 0 141.000000 152.000000"
 preserveAspectRatio="xMidYMid meet">

<g transform="translate(0.000000,152.000000) scale(0.100000,-0.100000)"
fill="#0c3b7d" stroke="none">
<path d="M511 1504 c-11 -8 -21 -23 -21 -33 0 -19 29 -51 46 -51 6 0 23 -14
40 -31 28 -30 28 -32 10 -43 -47 -28 -112 -85 -125 -108 -10 -20 -27 -29 -70
-40 l-56 -13 -3 -88 c-3 -101 2 -112 62 -129 28 -8 55 -27 84 -60 65 -72 120
-100 207 -106 97 -6 161 22 229 101 37 42 57 57 85 62 73 13 81 25 81 119 0
96 -3 100 -78 116 -42 10 -55 18 -73 46 -20 33 -97 94 -118 94 -6 0 -11 5 -11
12 0 16 50 68 65 68 7 0 20 9 30 20 15 17 16 24 7 46 -10 21 -18 25 -45 22
-27 -3 -32 -7 -35 -33 -2 -18 -18 -45 -40 -67 -31 -33 -42 -38 -82 -38 -39 0
-51 5 -79 34 -18 19 -36 49 -40 67 -8 39 -39 54 -70 33z m267 -210 c20 -8 52
-29 70 -47 100 -95 104 -232 9 -325 -98 -96 -234 -90 -325 13 -46 52 -68 127
-56 190 24 131 182 219 302 169z m-363 -209 c0 -55 -3 -65 -17 -65 -15 0 -18
10 -18 65 0 55 3 65 18 65 14 0 17 -10 17 -65z m605 5 c0 -49 -3 -61 -20 -70
-19 -10 -20 -8 -20 60 0 63 2 70 20 70 18 0 20 -7 20 -60z"/>
<path d="M568 1159 c-26 -15 -23 -64 4 -83 12 -9 26 -16 30 -16 14 0 48 39 48
55 0 18 -35 55 -52 55 -7 0 -21 -5 -30 -11z"/>
<path d="M769 1149 c-14 -14 -18 -27 -13 -42 15 -49 48 -62 77 -29 22 24 21
55 -1 75 -24 22 -38 21 -63 -4z"/>
<path d="M620 991 c0 -11 12 -29 27 -41 34 -27 89 -22 116 11 33 41 24 49 -63
49 -72 0 -80 -2 -80 -19z"/>
<path d="M137 943 c-4 -3 -7 -59 -7 -123 l0 -117 48 -7 c62 -9 206 -64 278
-107 32 -19 90 -63 128 -99 39 -36 81 -74 94 -84 l22 -19 83 80 c45 43 110 96
144 117 73 44 193 89 281 106 l62 13 0 118 c0 65 -4 120 -9 124 -12 7 -181
-47 -266 -85 -90 -40 -169 -93 -237 -158 l-59 -56 -57 56 c-97 95 -245 175
-411 224 -96 28 -86 26 -94 17z m158 -98 c125 -47 227 -107 303 -179 l72 -69
0 -55 0 -55 -47 45 c-95 88 -242 169 -367 203 l-66 18 0 58 c0 70 5 72 105 34z
m915 -34 l0 -58 -62 -18 c-75 -20 -229 -91 -290 -133 -24 -16 -63 -49 -86 -72
l-42 -42 0 57 c0 56 1 58 58 114 31 32 90 77 131 101 78 47 231 109 269 110
20 0 22 -4 22 -59z"/>
<path d="M13 838 c-4 -7 -8 -127 -8 -265 0 -210 3 -255 15 -267 8 -7 120 -52
247 -99 213 -79 236 -90 270 -127 49 -56 85 -72 157 -73 73 -1 129 24 175 80
32 39 37 41 354 154 77 27 147 54 158 59 18 10 19 25 19 269 0 274 -2 288 -47
279 -16 -3 -18 -21 -23 -216 l-5 -213 -131 -44 c-196 -65 -278 -110 -388 -214
-56 -54 -60 -56 -112 -56 -51 0 -55 2 -101 51 -26 28 -70 65 -96 83 -65 44
-211 112 -323 151 l-92 32 -7 206 c-5 136 -11 210 -19 214 -17 11 -34 9 -43
-4z m169 -494 c128 -44 288 -119 288 -134 0 -7 -6 -10 -12 -7 -65 26 -348 136
-365 141 -13 4 -23 14 -23 22 0 18 -8 20 112 -22z m1146 11 c-7 -7 -44 -23
-83 -35 -38 -13 -126 -45 -194 -72 -68 -27 -125 -47 -128 -45 -16 17 142 91
302 142 98 32 130 35 103 10z"/>
<path d="M130 636 c0 -19 7 -26 33 -31 52 -11 224 -84 301 -128 43 -25 103
-73 153 -123 l81 -81 48 54 c93 108 238 195 422 253 90 29 102 35 102 56 l0
23 -72 -20 c-172 -47 -308 -121 -423 -230 l-80 -77 -38 43 c-96 111 -323 238
-499 279 -25 6 -28 3 -28 -18z"/>
<path d="M122 550 c2 -17 20 -27 90 -50 169 -57 312 -136 387 -214 35 -36 61
-46 61 -24 0 22 -121 128 -199 174 -76 45 -247 116 -309 129 -30 6 -33 5 -30
-15z"/>
<path d="M1165 536 c-153 -49 -273 -116 -363 -202 -64 -60 -74 -74 -59 -79 13
-5 32 6 70 42 85 81 199 141 372 198 80 27 101 38 103 54 4 27 -3 26 -123 -13z"/>
<path d="M120 470 c0 -11 8 -23 18 -27 193 -68 322 -131 403 -199 44 -37 59
-42 59 -20 0 40 -163 146 -327 211 -152 60 -153 61 -153 35z"/>
<path d="M1170 451 c-130 -46 -249 -108 -315 -162 -58 -48 -67 -60 -56 -78 6
-9 21 -1 55 32 55 54 208 131 341 173 88 28 108 39 102 58 -6 18 -22 15 -127
-23z"/>
</g>
</svg>
